# xmcd CD database file
#
# Track frame offsets:
#	150
#	19012
#	42604
#	56197
#	78439
#	95366
#	119258
#	155723
#	169145
#	184552
#	202134
#	220646
#	255328
#	276145
#	286612
#	304374
#	319266
#
# Disc length: 4485 seconds
#
# Revision: 0
# Processed by: cddbd v1.5PL3 Copyright (c) Steve Scherf et al.
# Submitted via: CDex 1.50beta8
#
DISCID=f3118311
DTITLE=Peter Fessler - Here's that Rainy Day
DYEAR=2003
DGENRE=Jazz
TTITLE0=Your Eyes
TTITLE1=Here's That Rainy Day
TTITLE2=Day by Day
TTITLE3=Remembering
TTITLE4=One Note Samba
TTITLE5=Oh Sonho
TTITLE6=Wave
TTITLE7=Give Me One More Chance
TTITLE8=All the Things You Are
TTITLE9=Just One of Those Things
TTITLE10=Nothing but the Truth
TTITLE11=Tenderly
TTITLE12=Somewhere Over the Rainbow
TTITLE13=So Danco Samba
TTITLE14=What Now My Love
TTITLE15=Easier Said Than Done
TTITLE16=Morning Light
EXTD=YEAR: 2003
EXTT0=
EXTT1=
EXTT2=
EXTT3=
EXTT4=
EXTT5=
EXTT6=
EXTT7=
EXTT8=
EXTT9=
EXTT10=
EXTT11=
EXTT12=
EXTT13=
EXTT14=
EXTT15=
EXTT16=
PLAYORDER=
